<svg width="164" height="24" viewBox="0 0 164 24" fill="none" xmlns="http://www.w3.org/2000/svg">
<path d="M23.2243 8.45108L16.0296 7.35612L12.8133 0.528203C12.7255 0.341259 12.581 0.189923 12.4024 0.0979342C11.9547 -0.133521 11.4106 0.0593584 11.1868 0.528203L7.97055 7.35612L0.77582 8.45108C0.577461 8.48076 0.396105 8.57868 0.257255 8.72705C0.0893918 8.90772 -0.0031083 9.15079 7.97568e-05 9.40284C0.00326781 9.6549 0.101883 9.89531 0.274257 10.0713L5.47974 15.3858L4.24992 22.8903C4.22108 23.0649 4.23953 23.2444 4.30317 23.4086C4.36681 23.5727 4.47311 23.7149 4.60999 23.819C4.74688 23.9231 4.90889 23.985 5.07764 23.9976C5.24639 24.0102 5.41514 23.973 5.56475 23.8903L12.0001 20.3473L18.4354 23.8903C18.6111 23.9882 18.8151 24.0209 19.0106 23.9853C19.5037 23.8962 19.8352 23.4066 19.7502 22.8903L18.5204 15.3858L23.7259 10.0713C23.8675 9.92587 23.9611 9.73595 23.9894 9.52824C24.0659 9.00895 23.7202 8.52823 23.2243 8.45108Z" fill="#DDFF00"/>
<path d="M58.2243 8.45108L51.0296 7.35612L47.8133 0.528203C47.7255 0.341259 47.581 0.189923 47.4024 0.0979342C46.9547 -0.133521 46.4106 0.0593584 46.1868 0.528203L42.9706 7.35612L35.7758 8.45108C35.5775 8.48076 35.3961 8.57868 35.2573 8.72705C35.0894 8.90772 34.9969 9.15079 35.0001 9.40284C35.0033 9.6549 35.1019 9.89531 35.2743 10.0713L40.4797 15.3858L39.2499 22.8903C39.2211 23.0649 39.2395 23.2444 39.3032 23.4086C39.3668 23.5727 39.4731 23.7149 39.61 23.819C39.7469 23.9231 39.9089 23.985 40.0776 23.9976C40.2464 24.0102 40.4151 23.973 40.5648 23.8903L47.0001 20.3473L53.4354 23.8903C53.6111 23.9882 53.8151 24.0209 54.0106 23.9853C54.5037 23.8962 54.8352 23.4066 54.7502 22.8903L53.5204 15.3858L58.7259 10.0713C58.8675 9.92587 58.9611 9.73595 58.9894 9.52824C59.0659 9.00895 58.7202 8.52823 58.2243 8.45108Z" fill="#DDFF00"/>
<path d="M93.2243 8.45108L86.0296 7.35612L82.8133 0.528203C82.7255 0.341259 82.581 0.189923 82.4024 0.0979342C81.9547 -0.133521 81.4106 0.0593584 81.1868 0.528203L77.9706 7.35612L70.7758 8.45108C70.5775 8.48076 70.3961 8.57868 70.2573 8.72705C70.0894 8.90772 69.9969 9.15079 70.0001 9.40284C70.0033 9.6549 70.1019 9.89531 70.2743 10.0713L75.4797 15.3858L74.2499 22.8903C74.2211 23.0649 74.2395 23.2444 74.3032 23.4086C74.3668 23.5727 74.4731 23.7149 74.61 23.819C74.7469 23.9231 74.9089 23.985 75.0776 23.9976C75.2464 24.0102 75.4151 23.973 75.5648 23.8903L82.0001 20.3473L88.4354 23.8903C88.6111 23.9882 88.8151 24.0209 89.0106 23.9853C89.5037 23.8962 89.8352 23.4066 89.7502 22.8903L88.5204 15.3858L93.7259 10.0713C93.8675 9.92587 93.9611 9.73595 93.9894 9.52824C94.0659 9.00895 93.7202 8.52823 93.2243 8.45108Z" fill="#DDFF00"/>
<path d="M128.224 8.45108L121.03 7.35612L117.813 0.528203C117.725 0.341259 117.581 0.189923 117.402 0.0979342C116.955 -0.133521 116.411 0.0593584 116.187 0.528203L112.971 7.35612L105.776 8.45108C105.577 8.48076 105.396 8.57868 105.257 8.72705C105.089 8.90772 104.997 9.15079 105 9.40284C105.003 9.6549 105.102 9.89531 105.274 10.0713L110.48 15.3858L109.25 22.8903C109.221 23.0649 109.24 23.2444 109.303 23.4086C109.367 23.5727 109.473 23.7149 109.61 23.819C109.747 23.9231 109.909 23.985 110.078 23.9976C110.246 24.0102 110.415 23.973 110.565 23.8903L117 20.3473L123.435 23.8903C123.611 23.9882 123.815 24.0209 124.011 23.9853C124.504 23.8962 124.835 23.4066 124.75 22.8903L123.52 15.3858L128.726 10.0713C128.868 9.92587 128.961 9.73595 128.989 9.52824C129.066 9.00895 128.72 8.52823 128.224 8.45108Z" fill="#DDFF00"/>
<path d="M163.224 8.45108L156.03 7.35612L152.813 0.528203C152.725 0.341259 152.581 0.189923 152.402 0.0979342C151.955 -0.133521 151.411 0.0593584 151.187 0.528203L147.971 7.35612L140.776 8.45108C140.577 8.48076 140.396 8.57868 140.257 8.72705C140.089 8.90772 139.997 9.15079 140 9.40284C140.003 9.6549 140.102 9.89531 140.274 10.0713L145.48 15.3858L144.25 22.8903C144.221 23.0649 144.24 23.2444 144.303 23.4086C144.367 23.5727 144.473 23.7149 144.61 23.819C144.747 23.9231 144.909 23.985 145.078 23.9976C145.246 24.0102 145.415 23.973 145.565 23.8903L152 20.3473L158.435 23.8903C158.611 23.9882 158.815 24.0209 159.011 23.9853C159.504 23.8962 159.835 23.4066 159.75 22.8903L158.52 15.3858L163.726 10.0713C163.868 9.92587 163.961 9.73595 163.989 9.52824C164.066 9.00895 163.72 8.52823 163.224 8.45108Z" fill="#DDFF00"/>
</svg>
